<?xml version="1.0" encoding="utf-8"?>
<!-- Generator: Adobe Illustrator 28.2.0, SVG Export Plug-In . SVG Version: 6.00 Build 0)  -->
<svg version="1.1" id="Layer_1" xmlns="http://www.w3.org/2000/svg" xmlns:xlink="http://www.w3.org/1999/xlink" x="0px" y="0px"
	 viewBox="0 0 414.2 264.8" style="enable-background:new 0 0 414.2 264.8;" xml:space="preserve">
<path d="M100,188.4c-14.8,0-26.8-1.7-36.1-5s-15.9-8.6-19.8-15.7c-3.9-7.1-5.5-16.4-4.7-27.7h33c-0.7,9.9,1.3,16.9,5.8,21.1
	c4.5,4.2,12.5,6.3,23.8,6.3c9.7,0,17.1-1.5,22.1-4.4c5-2.9,7.8-7.9,8.3-15c0.5-4.9-0.3-8.8-2.4-11.7c-2.1-2.9-6.5-4.8-13-5.9
	l-32.4-4.8c-12.8-2.1-22.3-6.4-28.4-12.7c-6.1-6.3-8.7-15.7-7.6-28.1c1.1-14.7,6.9-25.7,17.5-33s25.1-11,43.5-11
	c20.5,0,35.4,3.6,44.5,10.8S167.2,70.9,166,88h-33c0.5-6.4,0.1-11.5-1.3-15.3c-1.4-3.8-4-6.6-7.8-8.3c-3.8-1.7-9.1-2.6-15.9-2.6
	c-8.4,0-14.8,1.4-19.2,4.2s-6.8,7.5-7.2,14.2c-0.5,4.9,0.3,8.7,2.5,11.3c2.2,2.6,6.1,4.3,11.7,5.1l32.8,5.6
	c13.9,2.1,23.7,6.6,29.6,13.3c5.9,6.7,8.3,16.3,7.2,28.7c-1.2,14.8-7.3,25.9-18.2,33.2C136.3,184.7,120.5,188.4,100,188.4L100,188.4
	z"/>
<path d="M194.2,185.8H164l12.6-146h30.2l-7.2,80.6h8.4l31.8-37.8h30.6L233.2,126l37.4,59.8h-37.2L206,140.6h-8L194.2,185.8
	L194.2,185.8z"/>
<path d="M308.6,225c-17.9,0-30.8-2.6-38.7-7.7c-7.9-5.1-11.7-13.2-11.3-24.3H290c0,2.8,0.6,5.2,1.7,7.1c1.1,1.9,3.2,3.4,6.3,4.3
	c3.1,0.9,7.4,1.4,13,1.4c8.4,0,14.4-1.9,18.1-5.7s5.9-9.4,6.7-16.9l0.8-9.2c0.1-1.9,0.3-3.8,0.6-5.9c0.3-2.1,0.6-4.1,1-6.1l-0.6-0.2
	c-4.7,7.2-10.6,12.7-17.7,16.4s-15,5.6-23.7,5.6c-11.2,0-19.5-3-24.9-9s-7.6-14.1-6.7-24.4l6-67.8h30.2l-5.2,57.2
	c-0.7,7.1,0.2,12.4,2.7,16.1c2.5,3.7,7.8,5.5,15.9,5.5c5.5,0,10-0.9,13.7-2.7s6.4-4.3,8.3-7.5s3-6.9,3.4-11.2l5-57.4H375l-8.6,97.8
	c-0.9,10.4-3.8,18.9-8.7,25.5c-4.9,6.6-11.5,11.4-19.8,14.5S319.8,225,308.6,225L308.6,225z"/>
</svg>
